<?xml version="1.0" encoding="UTF-8"?>
<svg id="Layer_2" data-name="Layer 2" xmlns="http://www.w3.org/2000/svg" viewBox="0 0 798.22 241.63">
  <defs>
    <style>
      .cls-1 {
        fill: #22c55e;
      }

      .cls-2 {
        fill: #0b1220;
      }
    </style>
  </defs>
  <g id="Layer_3" data-name="Layer 3">
    <g>
      <path class="cls-2" d="M248.19,50.06L172.58,4.64c-9.96-5.98-22.47-6.2-32.63-.56L62.81,46.86c-9.37,5.19-15.55,14.71-16.63,25.26l12.88-3.2c1.61-4.85,4.99-9.03,9.57-11.57L145.77,14.58c3.11-1.72,6.56-2.58,10.01-2.58,3.69,0,7.37.98,10.63,2.94l75.61,45.41c6.3,3.78,10.14,10.7,10.01,18.05l-1.52,88.19c-.13,7.35-4.2,14.13-10.63,17.69l-77.14,42.78c-6.43,3.57-14.34,3.43-20.64-.36l-75.61-45.41c-4.94-2.97-8.35-7.86-9.54-13.37l-11.64,2.89c1.95,8.56,7.31,16.15,15,20.77l75.61,45.41c5.15,3.09,10.98,4.64,16.81,4.64,5.45,0,10.91-1.36,15.83-4.08l77.14-42.78c10.17-5.64,16.6-16.36,16.81-27.98l1.52-88.19c.2-11.62-5.86-22.56-15.83-28.54Z"/>
      <g>
        <path class="cls-1" d="M77.14,141.34h0c-.38-2.4-2.36-3.92-4.43-3.41L7.85,153.97c-.09.02-.17.08-.23.16L.11,164.02c-.27.35,0,.89.39.79l73.61-18.21c2.06-.51,3.42-2.87,3.04-5.26Z"/>
        <path class="cls-1" d="M84.29,111.94h0c-.38-2.4-2.36-3.92-4.43-3.41L15,124.58c-.09.02-.17.08-.23.16l-7.51,9.89c-.27.35,0,.89.39.79l73.61-18.21c2.06-.51,3.42-2.87,3.04-5.26Z"/>
        <path class="cls-1" d="M90.55,82.98h0c-.38-2.4-2.36-3.92-4.43-3.41l-64.87,16.05c-.09.02-.17.08-.23.16l-7.51,9.89c-.27.35,0,.89.39.79l73.61-18.21c2.06-.51,3.42-2.87,3.04-5.26Z"/>
      </g>
      <path class="cls-2" d="M159.18,65.19l1.11.2c15.75,1.26,30.14,9.27,39.72,21.81,6.72,8.8,10.6,19.36,11.25,30.41l.02,5.83-.14,1.87c-2.14,27.8-24.77,49.69-52.56,51.11l-5.69.02-1.89-.15c-27.17-2.15-48.72-24.02-50.78-51.19l-.18-1.2.08-6.56c.74-10.87,4.53-21.3,11.16-30.01,9.54-12.54,23.88-20.59,39.6-21.92.59-.05.96-.08,1.34-.19l6.94-.02ZM132.2,113.4l21.24-15.43v-15.37s-14.03-10.19-14.03-10.19c-10.99,3.68-20.25,10.93-26.6,20.65l4.92,15.54,14.48,4.8ZM179.13,113.34l14.59-4.83,4.89-15.45c-6.36-9.71-15.61-16.97-26.61-20.65l-14.03,10.19v15.38s21.17,15.36,21.17,15.36ZM182.94,151.88l15.1-2.4c5.63-8.35,8.68-18.06,8.75-28.19l-11.8-8.43-14.37,4.77-7.82,24.15,10.13,10.1ZM128.5,153.46l10.48-10.5-8.19-25.23-14.47-4.81-11.72,8.37c.08,10.88,3.59,21.26,10.04,29.98l13.85,2.18ZM177.85,166.9l1.83-11.82-9.72-9.71h-26.95s-11.3,11.33-11.3,11.33l1.63,10.12c14.1,6.82,30.5,6.85,44.52.09Z"/>
      <g>
        <path d="M326.75,167.66c-6.04,0-11.47-1.01-16.29-3.03-4.82-2.02-8.8-4.89-11.94-8.61-3.14-3.72-5.19-8.14-6.15-13.26l9-1.5c1.44,5.6,4.48,9.99,9.12,13.17,4.64,3.18,10.18,4.77,16.62,4.77,4.24,0,8.04-.67,11.4-2.01,3.36-1.34,6-3.25,7.92-5.73,1.92-2.48,2.88-5.42,2.88-8.82,0-2.24-.4-4.15-1.2-5.73-.8-1.58-1.86-2.89-3.18-3.93-1.32-1.04-2.76-1.91-4.32-2.61-1.56-.7-3.08-1.27-4.56-1.71l-21.9-6.54c-2.64-.76-5.08-1.73-7.32-2.91-2.24-1.18-4.19-2.6-5.85-4.26-1.66-1.66-2.95-3.61-3.87-5.85-.92-2.24-1.38-4.8-1.38-7.68,0-4.88,1.28-9.1,3.84-12.66,2.56-3.56,6.06-6.3,10.5-8.22,4.44-1.92,9.5-2.86,15.18-2.82,5.76,0,10.91,1.02,15.45,3.06,4.54,2.04,8.29,4.95,11.25,8.73,2.96,3.78,4.92,8.25,5.88,13.41l-9.24,1.68c-.6-3.76-1.98-7.02-4.14-9.78-2.16-2.76-4.91-4.89-8.25-6.39-3.34-1.5-7.01-2.27-11.01-2.31-3.88,0-7.33.65-10.35,1.95-3.02,1.3-5.41,3.07-7.17,5.31-1.76,2.24-2.64,4.8-2.64,7.68s.81,5.26,2.43,7.02c1.62,1.76,3.62,3.14,6,4.14,2.38,1,4.69,1.82,6.93,2.46l16.92,4.98c1.76.48,3.83,1.17,6.21,2.07,2.38.9,4.7,2.18,6.96,3.84,2.26,1.66,4.13,3.83,5.61,6.51,1.48,2.68,2.22,6.08,2.22,10.2s-.79,7.58-2.37,10.74c-1.58,3.16-3.8,5.82-6.66,7.98-2.86,2.16-6.2,3.81-10.02,4.95-3.82,1.14-7.99,1.71-12.51,1.71Z"/>
        <path d="M381.53,165.86l-19.8-64.86,8.82.06,15.36,50.34,15.42-50.34h8.04l15.42,50.34,15.48-50.34h8.76l-19.8,64.8h-7.68l-16.2-51.6-16.14,51.6h-7.68Z"/>
        <path d="M481.85,167.66c-6.32,0-11.79-1.4-16.41-4.2-4.62-2.8-8.21-6.74-10.77-11.82s-3.84-11.04-3.84-17.88,1.26-13.2,3.78-18.36c2.52-5.16,6.07-9.14,10.65-11.94,4.58-2.8,9.99-4.2,16.23-4.2s11.86,1.47,16.38,4.41c4.52,2.94,7.94,7.15,10.26,12.63,2.32,5.48,3.38,12.02,3.18,19.62h-9v-3.12c-.16-8.4-1.97-14.74-5.43-19.02-3.46-4.28-8.51-6.42-15.15-6.42s-12.29,2.26-15.99,6.78c-3.7,4.52-5.55,10.96-5.55,19.32s1.85,14.49,5.55,18.99c3.7,4.5,8.95,6.75,15.75,6.75,4.64,0,8.69-1.07,12.15-3.21,3.46-2.14,6.19-5.23,8.19-9.27l8.22,3.18c-2.56,5.64-6.33,10.01-11.31,13.11-4.98,3.1-10.61,4.65-16.89,4.65ZM457.07,135.92v-7.38h49.5v7.38h-49.5Z"/>
        <path d="M548.99,167.66c-6.32,0-11.79-1.4-16.41-4.2-4.62-2.8-8.21-6.74-10.77-11.82s-3.84-11.04-3.84-17.88,1.26-13.2,3.78-18.36c2.52-5.16,6.07-9.14,10.65-11.94,4.58-2.8,9.99-4.2,16.23-4.2s11.86,1.47,16.38,4.41c4.52,2.94,7.94,7.15,10.26,12.63,2.32,5.48,3.38,12.02,3.18,19.62h-9v-3.12c-.16-8.4-1.97-14.74-5.43-19.02-3.46-4.28-8.51-6.42-15.15-6.42s-12.29,2.26-15.99,6.78c-3.7,4.52-5.55,10.96-5.55,19.32s1.85,14.49,5.55,18.99c3.7,4.5,8.95,6.75,15.75,6.75,4.64,0,8.69-1.07,12.15-3.21,3.46-2.14,6.19-5.23,8.19-9.27l8.22,3.18c-2.56,5.64-6.33,10.01-11.31,13.11-4.98,3.1-10.61,4.65-16.89,4.65ZM524.21,135.92v-7.38h49.5v7.38h-49.5Z"/>
        <path d="M586.84,194.66v-93.6h7.92v48.78h.96v44.82h-8.88ZM616.01,167.66c-5.96,0-11-1.51-15.12-4.53-4.12-3.02-7.24-7.12-9.36-12.3-2.12-5.18-3.18-10.99-3.18-17.43s1.07-12.41,3.21-17.55c2.14-5.14,5.29-9.19,9.45-12.15,4.16-2.96,9.28-4.44,15.36-4.44s11,1.5,15.24,4.5,7.49,7.08,9.75,12.24c2.26,5.16,3.39,10.96,3.39,17.4s-1.14,12.3-3.42,17.46c-2.28,5.16-5.56,9.25-9.84,12.27-4.28,3.02-9.44,4.53-15.48,4.53ZM615.1,159.44c4.52,0,8.28-1.14,11.28-3.42s5.25-5.39,6.75-9.33c1.5-3.94,2.25-8.37,2.25-13.29s-.74-9.28-2.22-13.2c-1.48-3.92-3.73-7.02-6.75-9.3-3.02-2.28-6.85-3.42-11.49-3.42s-8.27,1.1-11.25,3.3c-2.98,2.2-5.21,5.25-6.69,9.15-1.48,3.9-2.22,8.39-2.22,13.47s.74,9.47,2.22,13.41c1.48,3.94,3.72,7.03,6.72,9.27,3,2.24,6.8,3.36,11.4,3.36Z"/>
        <path d="M654.94,165.86v-86.4h14.46v40.08l34.5-40.08h17.76l-37.14,42.36,39.66,44.04h-18.36l-36.42-40.32v40.32h-14.46Z"/>
        <path d="M730.78,91.22v-13.26h14.46v13.26h-14.46ZM730.78,165.86v-64.8h14.46v64.8h-14.46Z"/>
        <path d="M753.04,112.4v-11.34h45.18v11.34h-45.18ZM798.22,165.86c-4.28.8-8.47,1.15-12.57,1.05-4.1-.1-7.77-.86-11.01-2.28-3.24-1.42-5.7-3.67-7.38-6.75-1.48-2.8-2.26-5.66-2.34-8.58-.08-2.92-.12-6.22-.12-9.9v-56.34h14.4v55.5c0,2.6.03,4.88.09,6.84.06,1.96.47,3.56,1.23,4.8,1.44,2.4,3.74,3.74,6.9,4.02,3.16.28,6.76.12,10.8-.48v12.12Z"/>
      </g>
    </g>
  </g>
</svg>